<svg width="183" height="62" viewBox="0 0 183 62" fill="none" xmlns="http://www.w3.org/2000/svg">
<path d="M55.1063 30.8687C55.1063 19.6805 46.0365 10.6107 34.8483 10.6107V10.6107C23.6601 10.6107 14.5903 19.6805 14.5903 30.8687V30.8687C14.5903 42.0569 23.6601 51.1266 34.8483 51.1266V51.1266C46.0365 51.1266 55.1063 42.0569 55.1063 30.8687V30.8687Z" fill="white"/>
<path fill-rule="evenodd" clip-rule="evenodd" d="M44.7619 31.0989C44.7619 30.3807 44.6975 29.6901 44.5778 29.0271H35.0381V32.9452H40.4893C40.2545 34.2113 39.5409 35.284 38.4681 36.0023V38.5437H41.7416C43.6569 36.7804 44.7619 34.1837 44.7619 31.0989Z" fill="#4285F4"/>
<path fill-rule="evenodd" clip-rule="evenodd" d="M35.0376 40.9976C37.7724 40.9976 40.0653 40.0906 41.7412 38.5436L38.4677 36.0022C37.5607 36.6099 36.4004 36.969 35.0376 36.969C32.3995 36.969 30.1665 35.1873 29.37 32.7931H25.986V35.4175C27.6526 38.7278 31.0781 40.9976 35.0376 40.9976Z" fill="#34A853"/>
<path fill-rule="evenodd" clip-rule="evenodd" d="M29.3704 32.7931C29.1678 32.1854 29.0527 31.5362 29.0527 30.8686C29.0527 30.201 29.1678 29.5519 29.3704 28.9441V26.3198H25.9864C25.3004 27.6872 24.9091 29.2342 24.9091 30.8686C24.9091 32.5031 25.3004 34.0501 25.9864 35.4175L29.3704 32.7931Z" fill="#FBBC05"/>
<path fill-rule="evenodd" clip-rule="evenodd" d="M35.0376 24.7683C36.5247 24.7683 37.8599 25.2793 38.9097 26.283L41.8148 23.3778C40.0607 21.7434 37.7678 20.7397 35.0376 20.7397C31.0781 20.7397 27.6526 23.0095 25.986 26.3199L29.37 28.9442C30.1665 26.5501 32.3995 24.7683 35.0376 24.7683Z" fill="#EA4335"/>
<path d="M65.8752 36.5113C65.8752 34.4313 66.3619 32.7246 67.3352 31.3913C68.3219 30.058 69.6886 29.3913 71.4352 29.3913C73.1952 29.3913 74.4219 29.7846 75.1152 30.5713C75.8086 31.358 76.1552 32.538 76.1552 34.1113L72.9152 34.3113C72.9152 33.3913 72.8086 32.7713 72.5952 32.4513C72.3952 32.118 72.0419 31.9513 71.5352 31.9513C71.0419 31.9513 70.6552 32.078 70.3752 32.3313C70.0952 32.5713 69.8886 32.938 69.7552 33.4313C69.5152 34.2713 69.3952 35.478 69.3952 37.0513C69.3952 38.6113 69.6019 39.738 70.0152 40.4313C70.4286 41.1246 71.1019 41.4713 72.0352 41.4713C72.4886 41.4713 72.8952 41.418 73.2552 41.3113V38.9913H71.3352L71.6352 36.7113H76.2552V42.8913C75.4419 43.278 74.6686 43.5646 73.9352 43.7513C73.2152 43.938 72.3619 44.0313 71.3752 44.0313C70.4019 44.0313 69.5619 43.878 68.8552 43.5713C68.1486 43.2513 67.6086 42.8646 67.2352 42.4113C66.8619 41.9446 66.5686 41.3513 66.3552 40.6313C66.1419 39.898 66.0086 39.238 65.9552 38.6513C65.9019 38.0513 65.8752 37.338 65.8752 36.5113ZM82.7679 32.8913C83.5012 32.8913 84.1412 33.0046 84.6879 33.2313C85.2346 33.458 85.6612 33.7513 85.9679 34.1113C86.2879 34.458 86.5412 34.8913 86.7279 35.4113C87.0346 36.2646 87.1879 37.3113 87.1879 38.5513C87.1879 40.458 86.6546 41.9046 85.5879 42.8913C84.7746 43.6513 83.6546 44.0313 82.2279 44.0313C81.4946 44.0313 80.8546 43.918 80.3079 43.6913C79.7612 43.4646 79.3279 43.178 79.0079 42.8313C78.7012 42.4713 78.4479 42.0313 78.2479 41.5113C77.9412 40.6846 77.7879 39.638 77.7879 38.3713C77.7879 37.198 78.0212 36.1646 78.4879 35.2713C79.3012 33.6846 80.7279 32.8913 82.7679 32.8913ZM83.9279 38.5113C83.9279 37.298 83.8346 36.458 83.6479 35.9913C83.4612 35.5113 83.0612 35.2713 82.4479 35.2713C81.8479 35.2713 81.4612 35.498 81.2879 35.9513C81.1279 36.4046 81.0479 37.2313 81.0479 38.4313C81.0479 39.6313 81.1412 40.4713 81.3279 40.9513C81.5146 41.418 81.9146 41.6513 82.5279 41.6513C83.1412 41.6513 83.5279 41.4313 83.6879 40.9913C83.8479 40.538 83.9279 39.7113 83.9279 38.5113ZM93.3343 32.8913C94.0676 32.8913 94.7076 33.0046 95.2543 33.2313C95.801 33.458 96.2276 33.7513 96.5343 34.1113C96.8543 34.458 97.1076 34.8913 97.2943 35.4113C97.601 36.2646 97.7543 37.3113 97.7543 38.5513C97.7543 40.458 97.221 41.9046 96.1543 42.8913C95.341 43.6513 94.221 44.0313 92.7943 44.0313C92.061 44.0313 91.421 43.918 90.8743 43.6913C90.3276 43.4646 89.8943 43.178 89.5743 42.8313C89.2676 42.4713 89.0143 42.0313 88.8143 41.5113C88.5076 40.6846 88.3543 39.638 88.3543 38.3713C88.3543 37.198 88.5876 36.1646 89.0543 35.2713C89.8676 33.6846 91.2943 32.8913 93.3343 32.8913ZM94.4943 38.5113C94.4943 37.298 94.401 36.458 94.2143 35.9913C94.0276 35.5113 93.6276 35.2713 93.0143 35.2713C92.4143 35.2713 92.0276 35.498 91.8543 35.9513C91.6943 36.4046 91.6143 37.2313 91.6143 38.4313C91.6143 39.6313 91.7076 40.4713 91.8943 40.9513C92.081 41.418 92.481 41.6513 93.0943 41.6513C93.7076 41.6513 94.0943 41.4313 94.2543 40.9913C94.4143 40.538 94.4943 39.7113 94.4943 38.5113ZM103.281 32.8913C104.521 32.9313 106.234 32.9913 108.421 33.0713L108.161 34.5513L106.961 34.7513C107.187 35.258 107.301 35.8513 107.301 36.5313C107.301 37.798 106.934 38.778 106.201 39.4713C105.467 40.1513 104.381 40.4913 102.941 40.4913C102.567 40.4913 102.294 40.4846 102.121 40.4713C101.867 40.6713 101.741 40.8246 101.741 40.9313C101.741 41.238 102.021 41.4113 102.581 41.4513L104.181 41.5713C105.621 41.6513 106.647 41.8713 107.261 42.2313C107.874 42.5913 108.181 43.258 108.181 44.2313C108.181 45.418 107.641 46.3046 106.561 46.8913C105.481 47.4913 104.167 47.7913 102.621 47.7913C99.794 47.7913 98.3807 46.958 98.3807 45.2913C98.3807 44.838 98.4807 44.498 98.6807 44.2713C98.894 44.0446 99.0407 43.8913 99.1207 43.8113C99.2007 43.7313 99.3674 43.6046 99.6207 43.4313C99.874 43.2446 100.021 43.1313 100.061 43.0913C99.5807 42.7313 99.3407 42.2513 99.3407 41.6513C99.3407 41.1713 99.6274 40.7246 100.201 40.3113C100.414 40.1646 100.541 40.0713 100.581 40.0313C99.4874 39.4713 98.9407 38.398 98.9407 36.8113C98.9407 35.5313 99.314 34.558 100.061 33.8913C100.807 33.2246 101.881 32.8913 103.281 32.8913ZM100.861 44.6313C100.861 45.3113 101.654 45.6513 103.241 45.6513C104.841 45.6513 105.641 45.3513 105.641 44.7513C105.641 44.4313 105.467 44.2113 105.121 44.0913C104.787 43.9713 104.141 43.898 103.181 43.8713C102.381 43.818 101.814 43.7513 101.481 43.6713C101.147 43.9646 100.961 44.1713 100.921 44.2913C100.881 44.4113 100.861 44.5246 100.861 44.6313ZM104.381 36.6313C104.381 36.0846 104.274 35.698 104.061 35.4713C103.847 35.2313 103.514 35.1113 103.061 35.1113C102.607 35.1113 102.294 35.2446 102.121 35.5113C101.961 35.7646 101.881 36.1646 101.881 36.7113C101.881 37.258 101.987 37.6513 102.201 37.8913C102.414 38.1313 102.747 38.2513 103.201 38.2513C103.667 38.2513 103.981 38.118 104.141 37.8513C104.301 37.5846 104.381 37.178 104.381 36.6313ZM112.302 40.1313C112.302 40.7846 112.342 41.2646 112.422 41.5713C112.515 41.878 112.735 42.2446 113.082 42.6713L110.882 44.2913C110.242 43.6113 109.802 43.018 109.562 42.5113C109.335 41.9913 109.222 41.218 109.222 40.1913V29.0313L112.302 28.6913V40.1313ZM118.741 32.8913C120.075 32.8913 121.055 33.258 121.681 33.9913C122.201 34.5913 122.521 35.5913 122.641 36.9913C122.681 37.5513 122.701 38.2513 122.701 39.0913L121.281 39.2913H117.161C117.161 40.078 117.308 40.6713 117.601 41.0713C117.895 41.458 118.415 41.6513 119.161 41.6513C119.921 41.6513 120.835 41.458 121.901 41.0713L122.521 42.9513C121.255 43.6713 119.935 44.0313 118.561 44.0313C115.455 44.0313 113.901 42.1913 113.901 38.5113C113.901 36.778 114.301 35.4113 115.101 34.4113C115.915 33.398 117.128 32.8913 118.741 32.8913ZM119.421 35.7313C119.288 35.4246 118.988 35.2713 118.521 35.2713C118.055 35.2713 117.721 35.4446 117.521 35.7913C117.321 36.1246 117.208 36.6313 117.181 37.3113H119.621C119.621 36.5513 119.555 36.0246 119.421 35.7313ZM128.665 29.6313H133.785C135.612 29.6313 136.872 30.0646 137.565 30.9313C138.165 31.7046 138.465 32.6913 138.465 33.8913C138.465 35.1313 138.098 36.218 137.365 37.1513C136.978 37.658 136.392 38.0646 135.605 38.3713C134.832 38.6646 133.898 38.8113 132.805 38.8113H131.945V43.7913H128.665V29.6313ZM131.945 31.8713V36.4513H133.025C133.705 36.4513 134.192 36.2713 134.485 35.9113C134.792 35.5513 134.945 34.9846 134.945 34.2113C134.945 33.4246 134.818 32.838 134.565 32.4513C134.312 32.0646 133.798 31.8713 133.025 31.8713H131.945ZM142.907 40.1313C142.907 40.7846 142.947 41.2646 143.027 41.5713C143.12 41.878 143.34 42.2446 143.687 42.6713L141.487 44.2913C140.847 43.6113 140.407 43.018 140.167 42.5113C139.94 41.9913 139.827 41.218 139.827 40.1913V29.0313L142.907 28.6913V40.1313ZM149.507 36.5113C149.507 36.0713 149.413 35.7513 149.227 35.5513C149.04 35.338 148.68 35.2313 148.147 35.2313C147.613 35.2313 146.733 35.4246 145.507 35.8113L144.647 33.9313C145.1 33.678 145.727 33.4446 146.527 33.2313C147.34 33.0046 148.133 32.8913 148.907 32.8913C149.693 32.8913 150.347 32.9846 150.867 33.1713C151.4 33.358 151.78 33.638 152.007 34.0113C152.247 34.3713 152.4 34.7313 152.467 35.0913C152.547 35.4513 152.587 35.9046 152.587 36.4513V40.2113C152.587 40.7046 152.633 41.1046 152.727 41.4113C152.833 41.718 153.053 42.0513 153.387 42.4113L151.647 44.0313C151.34 43.8846 151.04 43.6646 150.747 43.3713C150.467 43.078 150.26 42.8046 150.127 42.5513H150.047C149.273 43.538 148.293 44.0313 147.107 44.0313C145.187 44.0313 144.227 43.038 144.227 41.0513C144.227 39.998 144.527 39.2113 145.127 38.6913C145.74 38.1713 146.62 37.8113 147.767 37.6113L149.507 37.3113V36.5113ZM147.127 40.7313C147.127 41.3846 147.473 41.7113 148.167 41.7113C148.7 41.7113 149.153 41.5246 149.527 41.1513V39.2713C148.673 39.3913 148.06 39.558 147.687 39.7713C147.313 39.9713 147.127 40.2913 147.127 40.7313ZM159.776 32.9913L162.516 33.2913L160.076 41.9513C159.836 42.8313 159.576 43.558 159.296 44.1313C159.029 44.718 158.682 45.2913 158.256 45.8513C157.829 46.4246 157.289 46.878 156.636 47.2113C155.996 47.558 155.349 47.7513 154.696 47.7913L153.616 45.8713C155.229 45.578 156.176 44.8313 156.456 43.6313C156.109 42.4846 155.589 40.6913 154.896 38.2513C154.216 35.8113 153.749 34.158 153.496 33.2913L156.516 32.9913L157.996 40.9313H158.136L159.776 32.9913Z" fill="white"/>
<path d="M69.5339 11.772H72.3899C73.0059 11.772 73.5426 11.8747 73.9999 12.08C74.4666 12.276 74.8306 12.528 75.0919 12.836C75.3626 13.144 75.5819 13.5267 75.7499 13.984C76.0113 14.7307 76.1419 15.6547 76.1419 16.756C76.1419 18.0627 75.8713 19.1687 75.3299 20.074C75.0499 20.5407 74.6626 20.9094 74.1679 21.18C73.6733 21.4414 73.0946 21.572 72.4319 21.572H69.5339V11.772ZM70.8779 12.948V20.396H72.2779C73.3139 20.396 73.9906 20.0087 74.3079 19.234C74.4666 18.8514 74.5739 18.4594 74.6299 18.058C74.6859 17.6567 74.7139 17.176 74.7139 16.616C74.7139 16.056 74.6719 15.5707 74.5879 15.16C74.5133 14.74 74.3873 14.3574 74.2099 14.012C73.8273 13.3027 73.1459 12.948 72.1659 12.948H70.8779ZM79.2262 21.572H77.9662V14.292L79.2262 14.152V21.572ZM78.5402 13.746C77.9709 13.746 77.6862 13.4287 77.6862 12.794C77.6862 12.5607 77.7609 12.36 77.9102 12.192C78.0689 12.024 78.3115 11.94 78.6382 11.94C79.2075 11.94 79.4922 12.2574 79.4922 12.892C79.4922 13.1254 79.4129 13.326 79.2542 13.494C79.1049 13.662 78.8669 13.746 78.5402 13.746ZM80.9062 16.168C80.9062 15.524 81.1302 15.0107 81.5782 14.628C82.0355 14.2454 82.6235 14.054 83.3422 14.054C84.0609 14.054 84.6209 14.2314 85.0222 14.586C85.4235 14.9314 85.6522 15.398 85.7082 15.986L84.4062 16.252C84.3875 15.9067 84.2755 15.636 84.0702 15.44C83.8649 15.244 83.5989 15.146 83.2722 15.146C82.9455 15.146 82.6935 15.2254 82.5162 15.384C82.3389 15.5334 82.2502 15.72 82.2502 15.944C82.2502 16.168 82.2875 16.35 82.3622 16.49C82.4369 16.63 82.5582 16.756 82.7262 16.868C82.9502 17.0267 83.2629 17.19 83.6642 17.358C84.0655 17.5167 84.3595 17.6474 84.5462 17.75C84.7329 17.8434 84.9475 17.9787 85.1902 18.156C85.6475 18.4827 85.8762 18.954 85.8762 19.57C85.8762 20.1767 85.6335 20.69 85.1482 21.11C84.6629 21.53 84.0235 21.74 83.2302 21.74C82.4369 21.74 81.6482 21.488 80.8642 20.984L81.3542 20.06C82.2315 20.4334 82.9082 20.62 83.3842 20.62C84.1495 20.62 84.5322 20.3214 84.5322 19.724C84.5322 19.4534 84.4109 19.2294 84.1682 19.052C83.9349 18.8654 83.6175 18.688 83.2162 18.52C82.8149 18.3427 82.5162 18.2074 82.3202 18.114C82.1335 18.0114 81.9142 17.8667 81.6622 17.68C81.1582 17.3067 80.9062 16.8027 80.9062 16.168ZM88.5741 15.006C89.1061 14.3714 89.7781 14.054 90.5901 14.054C91.4021 14.054 92.0321 14.3434 92.4801 14.922C92.9375 15.4914 93.1661 16.4854 93.1661 17.904C93.1661 18.6227 93.0681 19.248 92.8721 19.78C92.6855 20.3027 92.4381 20.6994 92.1301 20.97C91.5421 21.4834 90.9075 21.74 90.2261 21.74C89.5448 21.74 89.0455 21.5907 88.7281 21.292L88.6861 21.306L88.7281 21.656V24.148L87.4681 24.288V16.238L87.3561 14.292L88.3781 14.152L88.5181 15.006H88.5741ZM88.7281 20.256C89.1295 20.4987 89.5961 20.62 90.1281 20.62C90.6601 20.62 91.0755 20.424 91.3741 20.032C91.6728 19.6307 91.8221 18.8934 91.8221 17.82C91.8221 16.5227 91.5795 15.7107 91.0941 15.384C90.8888 15.244 90.6368 15.174 90.3381 15.174C89.6288 15.174 89.0921 15.4074 88.7281 15.874V20.256ZM95.1293 15.244C95.372 14.88 95.708 14.5907 96.1373 14.376C96.576 14.1614 97.0846 14.054 97.6633 14.054C98.2513 14.054 98.7413 14.166 99.1333 14.39C99.5347 14.614 99.8287 14.9267 100.015 15.328C100.342 16.0467 100.505 16.9287 100.505 17.974C100.505 18.982 100.272 19.836 99.8053 20.536C99.5627 20.9094 99.222 21.2034 98.7833 21.418C98.354 21.6327 97.8453 21.74 97.2573 21.74C96.6786 21.74 96.1886 21.628 95.7873 21.404C95.3953 21.18 95.106 20.8627 94.9193 20.452C94.5926 19.7427 94.4293 18.8654 94.4293 17.82C94.4293 16.812 94.6626 15.9534 95.1293 15.244ZM98.6993 15.678C98.578 15.5287 98.41 15.4074 98.1953 15.314C97.9806 15.2207 97.7193 15.174 97.4113 15.174C97.1126 15.174 96.856 15.23 96.6413 15.342C96.4266 15.454 96.2633 15.5894 96.1513 15.748C96.0393 15.8974 95.9553 16.112 95.8993 16.392C95.8153 16.812 95.7733 17.2647 95.7733 17.75C95.7733 18.2354 95.7826 18.5947 95.8013 18.828C95.82 19.052 95.862 19.2854 95.9273 19.528C96.002 19.7707 96.1046 19.9667 96.2353 20.116C96.5153 20.452 96.9446 20.62 97.5233 20.62C97.822 20.62 98.0786 20.564 98.2933 20.452C98.508 20.34 98.6713 20.2094 98.7833 20.06C98.8953 19.9014 98.9793 19.682 99.0353 19.402C99.1193 18.982 99.1613 18.5294 99.1613 18.044C99.1613 17.5587 99.152 17.204 99.1333 16.98C99.1146 16.7467 99.068 16.5087 98.9933 16.266C98.928 16.0234 98.83 15.8274 98.6993 15.678ZM105.425 14.054C106.116 14.054 106.666 14.2547 107.077 14.656C107.488 15.048 107.693 15.6734 107.693 16.532V21.572H106.433V16.616C106.433 15.6547 105.952 15.174 104.991 15.174C104.711 15.174 104.436 15.244 104.165 15.384C103.894 15.5147 103.68 15.6687 103.521 15.846V21.572H102.261V16.238L102.149 14.292L103.171 14.152L103.353 14.978H103.409C103.577 14.7634 103.829 14.558 104.165 14.362C104.51 14.1567 104.93 14.054 105.425 14.054ZM111.865 11.072L112.607 12.038L109.989 13.676L109.401 12.976L111.865 11.072ZM111.123 21.572H109.863V14.292L111.123 14.152V21.572ZM117.003 14.138L118.165 14.278L116.149 21.572H114.525L112.411 14.278L113.671 14.138L115.323 20.34H115.393L117.003 14.138ZM122.093 14.054C122.895 14.054 123.488 14.2967 123.871 14.782C124.188 15.174 124.384 15.832 124.459 16.756C124.487 17.12 124.501 17.5727 124.501 18.114L123.927 18.198H120.301C120.301 19.374 120.613 20.116 121.239 20.424C121.5 20.5547 121.859 20.62 122.317 20.62C122.774 20.62 123.301 20.4707 123.899 20.172L124.291 21.04C123.516 21.5067 122.737 21.74 121.953 21.74C119.955 21.74 118.957 20.48 118.957 17.96C118.957 16.7654 119.218 15.818 119.741 15.118C120.273 14.4087 121.057 14.054 122.093 14.054ZM123.157 17.204C123.157 16.4574 123.082 15.9347 122.933 15.636C122.783 15.328 122.438 15.174 121.897 15.174C121.365 15.174 120.987 15.356 120.763 15.72C120.539 16.0747 120.399 16.5694 120.343 17.204H123.157ZM127.349 19.332C127.349 19.7894 127.386 20.1394 127.461 20.382C127.536 20.6154 127.704 20.8674 127.965 21.138L127.027 21.88C126.644 21.4787 126.392 21.138 126.271 20.858C126.15 20.578 126.089 20.102 126.089 19.43V11.142L127.349 11.002V19.332ZM135.654 14.054C136.344 14.054 136.895 14.2547 137.306 14.656C137.716 15.048 137.922 15.6734 137.922 16.532V21.572H136.662V16.616C136.662 15.6547 136.181 15.174 135.22 15.174C134.94 15.174 134.664 15.244 134.394 15.384C134.123 15.5147 133.908 15.6687 133.75 15.846V21.572H132.49V16.238L132.378 14.292L133.4 14.152L133.582 14.978H133.638C133.806 14.7634 134.058 14.558 134.394 14.362C134.739 14.1567 135.159 14.054 135.654 14.054ZM140.301 15.244C140.544 14.88 140.88 14.5907 141.309 14.376C141.748 14.1614 142.257 14.054 142.835 14.054C143.423 14.054 143.913 14.166 144.305 14.39C144.707 14.614 145.001 14.9267 145.187 15.328C145.514 16.0467 145.677 16.9287 145.677 17.974C145.677 18.982 145.444 19.836 144.977 20.536C144.735 20.9094 144.394 21.2034 143.955 21.418C143.526 21.6327 143.017 21.74 142.429 21.74C141.851 21.74 141.361 21.628 140.959 21.404C140.567 21.18 140.278 20.8627 140.091 20.452C139.765 19.7427 139.601 18.8654 139.601 17.82C139.601 16.812 139.835 15.9534 140.301 15.244ZM143.871 15.678C143.75 15.5287 143.582 15.4074 143.367 15.314C143.153 15.2207 142.891 15.174 142.583 15.174C142.285 15.174 142.028 15.23 141.813 15.342C141.599 15.454 141.435 15.5894 141.323 15.748C141.211 15.8974 141.127 16.112 141.071 16.392C140.987 16.812 140.945 17.2647 140.945 17.75C140.945 18.2354 140.955 18.5947 140.973 18.828C140.992 19.052 141.034 19.2854 141.099 19.528C141.174 19.7707 141.277 19.9667 141.407 20.116C141.687 20.452 142.117 20.62 142.695 20.62C142.994 20.62 143.251 20.564 143.465 20.452C143.68 20.34 143.843 20.2094 143.955 20.06C144.067 19.9014 144.151 19.682 144.207 19.402C144.291 18.982 144.333 18.5294 144.333 18.044C144.333 17.5587 144.324 17.204 144.305 16.98C144.287 16.7467 144.24 16.5087 144.165 16.266C144.1 16.0234 144.002 15.8274 143.871 15.678Z" fill="white"/>
<rect x="1.90967" y="1.98172" width="179.322" height="57.7739" rx="8.5" stroke="#EB8F2C" stroke-width="3"/>
</svg>
