<svg width="75" height="75" viewBox="0 0 75 75" fill="none" xmlns="http://www.w3.org/2000/svg">
<rect x="0.162354" y="0.550842" width="73.9416" height="73.9416" rx="36.9708" fill="url(#paint0_radial_26_532)"/>
<path d="M37.1331 22.377C42.0328 22.377 42.701 22.377 44.7054 22.377C46.4872 22.377 47.378 22.8224 48.0462 23.0451C48.937 23.4906 49.6052 23.7133 50.2733 24.3814C50.9415 25.0496 51.3869 25.7177 51.6096 26.6086C51.8323 27.2767 52.055 28.1676 52.2778 29.9493C52.2778 31.9538 52.2778 32.3992 52.2778 37.5217C52.2778 42.6441 52.2778 43.0895 52.2778 45.094C52.2778 46.8757 51.8323 47.7666 51.6096 48.4347C51.1642 49.3256 50.9415 49.9937 50.2733 50.6619C49.6052 51.33 48.937 51.7755 48.0462 51.9982C47.378 52.2209 46.4872 52.4436 44.7054 52.6663C42.701 52.6663 42.2556 52.6663 37.1331 52.6663C32.0106 52.6663 31.5652 52.6663 29.5608 52.6663C27.779 52.6663 26.8882 52.2209 26.22 51.9982C25.3292 51.5527 24.661 51.33 23.9929 50.6619C23.3247 49.9937 22.8793 49.3256 22.6566 48.4347C22.4339 47.7666 22.2112 46.8757 21.9884 45.094C21.9884 43.0895 21.9884 42.6441 21.9884 37.5217C21.9884 32.3992 21.9884 31.9538 21.9884 29.9493C21.9884 28.1676 22.4339 27.2767 22.6566 26.6086C23.102 25.7177 23.3247 25.0496 23.9929 24.3814C24.661 23.7133 25.3292 23.2679 26.22 23.0451C26.8882 22.8224 27.779 22.5997 29.5608 22.377C31.5652 22.377 32.2334 22.377 37.1331 22.377ZM37.1331 19.0363C32.0106 19.0363 31.5652 19.0363 29.5608 19.0363C27.5563 19.0363 26.22 19.4817 25.1065 19.9271C23.9929 20.3725 22.8793 21.0407 21.7657 22.1543C20.6521 23.2679 20.2067 24.1587 19.5386 25.495C19.0931 26.6086 18.8704 27.9449 18.6477 29.9493C18.6477 31.9538 18.6477 32.6219 18.6477 37.5217C18.6477 42.6441 18.6477 43.0895 18.6477 45.094C18.6477 47.0984 19.0931 48.4347 19.5386 49.5483C19.984 50.6619 20.6521 51.7755 21.7657 52.889C22.8793 54.0026 23.7702 54.448 25.1065 55.1162C26.22 55.5616 27.5563 55.7843 29.5608 56.007C31.5652 56.007 32.2334 56.007 37.1331 56.007C42.0328 56.007 42.701 56.007 44.7054 56.007C46.7099 56.007 48.0462 55.5616 49.1597 55.1162C50.2733 54.6708 51.3869 54.0026 52.5005 52.889C53.6141 51.7755 54.0595 50.8846 54.7276 49.5483C55.1731 48.4347 55.3958 47.0984 55.6185 45.094C55.6185 43.0895 55.6185 42.4214 55.6185 37.5217C55.6185 32.6219 55.6185 31.9538 55.6185 29.9493C55.6185 27.9449 55.1731 26.6086 54.7276 25.495C54.2822 24.3814 53.6141 23.2679 52.5005 22.1543C51.3869 21.0407 50.496 20.5953 49.1597 19.9271C48.0462 19.4817 46.7099 19.259 44.7054 19.0363C42.701 19.0363 42.2556 19.0363 37.1331 19.0363Z" fill="white"/>
<path d="M37.1331 27.9449C31.7879 27.9449 27.5563 32.1765 27.5563 37.5217C27.5563 42.8668 31.7879 47.0984 37.1331 47.0984C42.4783 47.0984 46.7099 42.8668 46.7099 37.5217C46.7099 32.1765 42.4783 27.9449 37.1331 27.9449ZM37.1331 43.7577C33.7924 43.7577 30.8971 41.0851 30.8971 37.5217C30.8971 34.1809 33.5697 31.2856 37.1331 31.2856C40.4738 31.2856 43.3691 33.9582 43.3691 37.5217C43.3691 40.8624 40.4738 43.7577 37.1331 43.7577Z" fill="white"/>
<path d="M46.9326 29.9493C48.1626 29.9493 49.1597 28.9522 49.1597 27.7222C49.1597 26.4921 48.1626 25.495 46.9326 25.495C45.7026 25.495 44.7054 26.4921 44.7054 27.7222C44.7054 28.9522 45.7026 29.9493 46.9326 29.9493Z" fill="white"/>
<defs>
<radialGradient id="paint0_radial_26_532" cx="0" cy="0" r="1" gradientUnits="userSpaceOnUse" gradientTransform="translate(75.5914 2.05278) scale(170.753)">
<stop stop-color="#F9ED32"/>
<stop offset="0.36" stop-color="#EE2A7B"/>
<stop offset="0.44" stop-color="#D22A8A"/>
<stop offset="0.6" stop-color="#8B2AB2"/>
<stop offset="0.83" stop-color="#1B2AF0"/>
<stop offset="0.88" stop-color="#002AFF"/>
</radialGradient>
</defs>
</svg>
