<svg width="26" height="25" viewBox="0 0 26 25" fill="none" xmlns="http://www.w3.org/2000/svg">
<g clip-path="url(#clip0_23_2)">
<path d="M22.041 10.623C22.041 17.7132 12.9249 23.7906 12.9249 23.7906C12.9249 23.7906 3.80884 17.7132 3.80884 10.623C3.80884 8.20522 4.76928 5.8865 6.47888 4.17691C8.18847 2.46731 10.5072 1.50687 12.9249 1.50687C15.3427 1.50687 17.6614 2.46731 19.371 4.17691C21.0806 5.8865 22.041 8.20522 22.041 10.623Z" stroke="#E97820" stroke-width="2" stroke-linecap="round" stroke-linejoin="round"/>
<path d="M12.9249 13.6616C14.6032 13.6616 15.9636 12.3012 15.9636 10.623C15.9636 8.94473 14.6032 7.58426 12.9249 7.58426C11.2467 7.58426 9.88623 8.94473 9.88623 10.623C9.88623 12.3012 11.2467 13.6616 12.9249 13.6616Z" stroke="#E97820" stroke-width="2" stroke-linecap="round" stroke-linejoin="round"/>
</g>
<defs>
<clipPath id="clip0_23_2">
<rect width="24.3096" height="24.3096" fill="white" transform="translate(0.770142 0.493958)"/>
</clipPath>
</defs>
</svg>
