<svg width="26" height="25" viewBox="0 0 26 25" fill="none" xmlns="http://www.w3.org/2000/svg">
<path d="M23.0539 17.6056V20.6443C23.0551 20.9264 22.9973 21.2057 22.8843 21.4641C22.7713 21.7226 22.6055 21.9546 22.3977 22.1453C22.1898 22.336 21.9444 22.4812 21.6772 22.5716C21.4099 22.662 21.1268 22.6955 20.8458 22.6701C17.729 22.3315 14.735 21.2664 12.1045 19.5605C9.65718 18.0054 7.58226 15.9305 6.02712 13.4832C4.3153 10.8407 3.25 7.83218 2.91752 4.70132C2.89221 4.42122 2.9255 4.13892 3.01527 3.87239C3.10504 3.60586 3.24932 3.36094 3.43893 3.15323C3.62854 2.94551 3.85932 2.77956 4.11658 2.66592C4.37385 2.55229 4.65195 2.49347 4.93319 2.4932H7.97189C8.46345 2.48836 8.94001 2.66243 9.31272 2.98297C9.68544 3.30351 9.92888 3.74863 9.99768 4.23539C10.1259 5.20784 10.3638 6.16266 10.7067 7.08163C10.843 7.44417 10.8725 7.83818 10.7917 8.21697C10.7109 8.59576 10.5232 8.94345 10.2509 9.21885L8.96453 10.5052C10.4064 13.0411 12.5061 15.1407 15.0419 16.5826L16.3283 15.2962C16.6037 15.0239 16.9514 14.8362 17.3302 14.7554C17.709 14.6747 18.103 14.7042 18.4655 14.8404C19.3845 15.1834 20.3393 15.4212 21.3118 15.5495C21.8038 15.6189 22.2531 15.8667 22.5744 16.2458C22.8956 16.6249 23.0663 17.1089 23.0539 17.6056Z" stroke="#E97820" stroke-width="2" stroke-linecap="round" stroke-linejoin="round"/>
</svg>
