<svg width="75" height="75" viewBox="0 0 75 75" fill="none" xmlns="http://www.w3.org/2000/svg">
<rect x="0.118408" y="0.550842" width="73.9416" height="73.9416" rx="36.9708" fill="#48C95F"/>
<path d="M51.7422 22.8488C48.0902 19.2095 43.2209 17.1877 38.0811 17.1877C27.3956 17.1877 18.739 25.8142 18.739 36.4626C18.739 39.8323 19.6858 43.202 21.3089 46.0326L18.6038 56.007L28.8834 53.3112C31.7239 54.7939 34.8348 55.6026 38.0811 55.6026C48.7665 55.6026 57.4231 46.9761 57.4231 36.3278C57.2878 31.3406 55.3942 26.4881 51.7422 22.8488ZM47.4139 43.3368C47.0081 44.4151 45.1145 45.4934 44.1677 45.6282C43.3562 45.763 42.2741 45.763 41.192 45.4934C40.5157 45.2239 39.5689 44.9543 38.4868 44.4151C33.6175 42.3933 30.5066 37.5409 30.236 37.1365C29.9655 36.8669 28.2072 34.5755 28.2072 32.1493C28.2072 29.7231 29.4245 28.6448 29.8303 28.1056C30.236 27.5665 30.7771 27.5665 31.1828 27.5665C31.4534 27.5665 31.8591 27.5665 32.1297 27.5665C32.4002 27.5665 32.806 27.4317 33.2117 28.3752C33.6175 29.3187 34.5643 31.7449 34.6996 31.8797C34.8348 32.1493 34.8348 32.4189 34.6996 32.6885C34.5643 32.958 34.4291 33.2276 34.1585 33.4972C33.888 33.7668 33.6175 34.1711 33.4822 34.3059C33.2117 34.5755 32.9412 34.8451 33.2117 35.2495C33.4822 35.7886 34.4291 37.2713 35.9169 38.6192C37.8105 40.2367 39.2984 40.7758 39.8394 41.0454C40.3805 41.315 40.651 41.1802 40.9215 40.9106C41.192 40.641 42.1388 39.5627 42.4093 39.0236C42.6799 38.4844 43.0856 38.6192 43.4914 38.754C43.8972 38.8888 46.3319 40.1019 46.7376 40.3714C47.2787 40.641 47.5492 40.7758 47.6844 40.9106C47.8197 41.315 47.8197 42.2585 47.4139 43.3368Z" fill="white"/>
</svg>
